<svg width="50" height="50" viewBox="0 0 50 50" fill="none" xmlns="http://www.w3.org/2000/svg">
<circle cx="25" cy="25" r="25" fill="#0A7900"/>
<path fill-rule="evenodd" clip-rule="evenodd" d="M29.4375 37.6875C30.8299 37.6875 32.1652 37.1344 33.1498 36.1498C34.1344 35.1652 34.6875 33.8299 34.6875 32.4375C34.6875 31.0451 34.1344 29.7098 33.1498 28.7252C32.1652 27.7406 30.8299 27.1875 29.4375 27.1875C28.0451 27.1875 26.7098 27.7406 25.7252 28.7252C24.7406 29.7098 24.1875 31.0451 24.1875 32.4375C24.1875 33.8299 24.7406 35.1652 25.7252 36.1498C26.7098 37.1344 28.0451 37.6875 29.4375 37.6875V37.6875ZM36 32.4375C36 34.178 35.3086 35.8472 34.0779 37.0779C32.8472 38.3086 31.178 39 29.4375 39C27.697 39 26.0278 38.3086 24.7971 37.0779C23.5664 35.8472 22.875 34.178 22.875 32.4375C22.875 30.697 23.5664 29.0278 24.7971 27.7971C26.0278 26.5664 27.697 25.875 29.4375 25.875C31.178 25.875 32.8472 26.5664 34.0779 27.7971C35.3086 29.0278 36 30.697 36 32.4375V32.4375Z" fill="white"/>
<path d="M27.3871 33.6765C27.4487 34.4588 28.0669 35.0678 29.176 35.1413V35.7188H29.6682V35.1373C30.8166 35.0573 31.4873 34.443 31.4873 33.5531C31.4873 32.742 30.9754 32.3246 30.0567 32.1094L29.6682 32.0175V30.4425C30.1617 30.4989 30.4741 30.768 30.5489 31.1408H31.4125C31.3508 30.3861 30.7037 29.7968 29.6682 29.7324V29.1562H29.176V29.7469C28.1956 29.8427 27.5288 30.432 27.5288 31.2667C27.5288 32.0044 28.0249 32.4742 28.8505 32.6659L29.176 32.7459V34.4154C28.672 34.3393 28.3373 34.0611 28.2625 33.6765H27.3857H27.3871ZM29.1721 31.8994C28.6877 31.7878 28.4252 31.5581 28.4252 31.2142C28.4252 30.8284 28.7087 30.5396 29.176 30.4556V31.8994H29.1721V31.8994ZM29.7391 32.8785C30.3284 33.015 30.5987 33.2355 30.5987 33.6253C30.5987 34.0702 30.2614 34.3748 29.6682 34.4312V32.8628L29.7391 32.8785V32.8785Z" fill="white"/>
<path d="M16.3125 18C15.9644 18 15.6306 18.1383 15.3844 18.3844C15.1383 18.6306 15 18.9644 15 19.3125V29.8125C15 30.1606 15.1383 30.4944 15.3844 30.7406C15.6306 30.9867 15.9644 31.125 16.3125 31.125H21.6714C21.7476 30.6735 21.8618 30.2351 22.0101 29.8125H18.9375C18.9375 29.1163 18.6609 28.4486 18.1687 27.9563C17.6764 27.4641 17.0087 27.1875 16.3125 27.1875V21.9375C17.0087 21.9375 17.6764 21.6609 18.1687 21.1687C18.6609 20.6764 18.9375 20.0087 18.9375 19.3125H32.0625C32.0625 20.0087 32.3391 20.6764 32.8313 21.1687C33.3236 21.6609 33.9913 21.9375 34.6875 21.9375V26.568C35.1862 27.0142 35.6286 27.5235 36 28.0826V19.3125C36 18.9644 35.8617 18.6306 35.6156 18.3844C35.3694 18.1383 35.0356 18 34.6875 18H16.3125Z" fill="white"/>
<path d="M28.1224 24.6714L28.125 24.5625C28.1247 24.1104 28.0077 23.6661 27.7853 23.2726C27.5629 22.879 27.2427 22.5496 26.8556 22.3161C26.4685 22.0827 26.0277 21.9532 25.5758 21.9401C25.124 21.9271 24.6764 22.0309 24.2765 22.2416C23.8766 22.4523 23.5378 22.7627 23.2931 23.1427C23.0483 23.5228 22.9059 23.9596 22.8795 24.4108C22.8531 24.8621 22.9437 25.3125 23.1425 25.7185C23.3413 26.1245 23.6416 26.4722 24.0143 26.7281C25.1479 25.6483 26.5786 24.932 28.1224 24.6714V24.6714Z" fill="white"/>
</svg>
