<svg width="20" height="20" viewBox="0 0 20 20" fill="none" xmlns="http://www.w3.org/2000/svg">
<path d="M17.5446 15.467L13.7656 11.688C14.3547 10.7211 14.6655 9.61028 14.6636 8.47801C14.6636 5.06101 11.7026 2.10101 8.28561 2.10101C7.47322 2.10088 6.66875 2.2608 5.91817 2.57163C5.16759 2.88246 4.4856 3.33811 3.91115 3.91256C3.3367 4.48701 2.88105 5.169 2.57022 5.91958C2.25939 6.67016 2.09948 7.47462 2.09961 8.28701C2.09961 11.703 5.06061 14.664 8.47661 14.664C9.57156 14.665 10.6469 14.3736 11.5916 13.82L15.3906 17.621C15.5693 17.7992 15.8113 17.8993 16.0636 17.8993C16.3159 17.8993 16.558 17.7992 16.7366 17.621L17.6796 16.678C18.0506 16.307 17.9156 15.838 17.5446 15.467ZM4.00361 8.28701C4.00348 7.72461 4.11414 7.16769 4.32927 6.64806C4.5444 6.12842 4.85979 5.65626 5.25742 5.25854C5.65506 4.86081 6.12715 4.54531 6.64673 4.33006C7.16631 4.1148 7.72321 4.00401 8.28561 4.00401C10.6516 4.00401 12.7596 6.11101 12.7596 8.47801C12.7593 9.61385 12.308 10.7031 11.5049 11.5063C10.7017 12.3094 9.61245 12.7607 8.47661 12.761C6.11061 12.76 4.00361 10.652 4.00361 8.28701Z" fill="black"/>
</svg>
