<svg width="50" height="50" viewBox="0 0 50 50" fill="none" xmlns="http://www.w3.org/2000/svg">
<circle cx="25" cy="25" r="25" fill="#4883B8"/>
<path d="M19.0004 18.4C19.0004 17.9226 19.19 17.4647 19.5276 17.1272C19.8652 16.7896 20.323 16.6 20.8004 16.6H29.2004C29.6778 16.6 30.1356 16.7896 30.4732 17.1272C30.8107 17.4647 31.0004 17.9226 31.0004 18.4V19H31.6004C32.396 19 33.1591 19.316 33.7217 19.8787C34.2843 20.4413 34.6004 21.2043 34.6004 22V28C34.6004 28.4774 34.4107 28.9352 34.0732 29.2728C33.7356 29.6103 33.2778 29.8 32.8004 29.8H31.0004V31.6C31.0004 32.0774 30.8107 32.5352 30.4732 32.8728C30.1356 33.2103 29.6778 33.4 29.2004 33.4H20.8004C20.323 33.4 19.8652 33.2103 19.5276 32.8728C19.19 32.5352 19.0004 32.0774 19.0004 31.6V29.8H17.2004C16.723 29.8 16.2652 29.6103 15.9276 29.2728C15.59 28.9352 15.4004 28.4774 15.4004 28V22C15.4004 21.2043 15.7165 20.4413 16.2791 19.8787C16.8417 19.316 17.6047 19 18.4004 19H19.0004V18.4ZM29.8004 18.4C29.8004 18.2408 29.7372 18.0882 29.6247 17.9757C29.5121 17.8632 29.3595 17.8 29.2004 17.8H20.8004C20.6413 17.8 20.4886 17.8632 20.3761 17.9757C20.2636 18.0882 20.2004 18.2408 20.2004 18.4V19H29.8004V18.4ZM20.2004 26.8V31.6C20.2004 31.7591 20.2636 31.9117 20.3761 32.0242C20.4886 32.1368 20.6413 32.2 20.8004 32.2H29.2004C29.3595 32.2 29.5121 32.1368 29.6247 32.0242C29.7372 31.9117 29.8004 31.7591 29.8004 31.6V26.8C29.8004 26.6408 29.7372 26.4882 29.6247 26.3757C29.5121 26.2632 29.3595 26.2 29.2004 26.2H20.8004C20.6413 26.2 20.4886 26.2632 20.3761 26.3757C20.2636 26.4882 20.2004 26.6408 20.2004 26.8Z" fill="white"/>
</svg>
